<svg width="1456" height="1386" xmlns="http://www.w3.org/2000/svg" xmlns:xlink="http://www.w3.org/1999/xlink" xml:space="preserve" overflow="hidden"><defs><clipPath id="clip0"><rect x="2862" y="131" width="1456" height="1386"/></clipPath></defs><g clip-path="url(#clip0)" transform="translate(-2862 -131)"><path d="M3317 131 3536 251.967 3536 512.033 3317 633 3098 512.033 3098 251.967Z" fill="#5D5F64" fill-rule="evenodd"/><path d="M3581 573 3800 693.967 3800 954.033 3581 1075 3362 954.033 3362 693.967Z" fill="#5D5F64" fill-rule="evenodd"/><path d="M3081 573 3300 693.967 3300 954.033 3081 1075 2862 954.033 2862 693.967Z" fill="#5D5F64" fill-rule="evenodd"/><path d="M4099 573 4318 693.967 4318 954.033 4099 1075 3880 954.033 3880 693.967Z" fill="#5D5F64" fill-rule="evenodd"/><path d="M3824.5 1015 4043 1135.69 4043 1396.31 3824.5 1517 3606 1396.31 3606 1135.69Z" fill="#5D5F64" fill-rule="evenodd"/><path d="M3322.5 1015 3541 1135.69 3541 1395.31 3322.5 1516 3104 1395.31 3104 1135.69Z" fill="#5D5F64" fill-rule="evenodd"/><path d="M3829.5 131 4048 251.691 4048 512.309 3829.5 633 3611 512.309 3611 251.691Z" fill="#5D5F64" fill-rule="evenodd"/></g></svg>